Steamboat Bill, Jr. (1928) Silent, Black and White with English Intertitles
Convict 13 (1920)  Silent, Black and White with English Intertitles
Daydreams (1922)  Silent, Black and White with English Intertitles

Director: Buster Keaton

Flavored with Americana and loaded with cinematic inventiveness, Steamboat Bill Jr. was Buster Keaton's final independent production before joining MGM (where his work suffered a steady decline in quality), a comic masterpiece that represents the full breadth of its maker's remarkable talents

Set on the Mississippi River in the old sidewheeler days, Steamboat Bill Jr. follows the adventures of a spoiled young man who is forced by his crusty father (Ernest Torrence) to learn the ropes of riverboating. Over the course of the narrative, the scale of comedy gradually expands, from small-scale, nostalgic humor (as when Bill Sr. outfits his son with a new wardrobe) to some of the most elaborate sight gags of Keaton's career. Junior's attempts to single-handedly pilot the rag-tag "Stonewall Jackson" recall the mechanical brilliance of The General and The Navigator, but the film's crowning achievement is its hurricane climax. Highlighted by remarkable special effects (including the destruction of full-sized sturctures), it includes the legendary stunt in which the front of a building collapses over Junior, who passes unharmed through an open window.

Surprisingly dark yet wickedly funny, Convict 13 (Dir. Buster Keaton, Eddie Cline. U.S. 1920. B&W. 20 mins. Music: Robert Israel at the Fotoplayer.) combines gallows humor with rapid-fire slapstick as Buster struggles to survive within, and escape from, prison walls.

In Kino's carefully-reconstructed print of Daydreams (Dir. Buster Keaton, Eddie Cline. U.S. 1922. B&W. 22 mins. Musical setting by Robert Israel.), Buster tries to establish himself in a profession -- from veterinary assistant to street-sweeper to actor -- and, in one of his most cleverly staged chases, is pursued by a herd of New York City "bulls."

Media Info:
General
Complete name                    : J:\Seeding\Steamboat Bill, Jr. (1928)[DVDRip][big_dad_e™]\Steamboat Bill, Jr. (1928)[DVDRip][big_dad_e™].AVI
Format                           : AVI
Format/Info                      : Audio Video Interleave
File size                        : 1.42 GiB
Duration                         : 1h 51mn
Overall bit rate                 : 1 834 Kbps

Video
ID                               : 0
Format                           : AVC
Format/Info                      : Advanced Video Codec
Format profile                   : Main@L3.0
Format settings, CABAC           : Yes
Format settings, ReFrames        : 2 frames
Codec ID                         : H264
Duration                         : 1h 51mn
Bit rate                         : 1 500 Kbps
Width                            : 712 pixels
Height                           : 480 pixels
Display aspect ratio             : 4:3
Frame rate                       : 29.970 fps
Color space                      : YUV
Chroma subsampling               : 4:2:0
Bit depth                        : 8 bits
Scan type                        : Progressive
Bits/(Pixel*Frame)               : 0.146
Stream size                      : 1.16 GiB (82%)
Writing library                  : x264 core 65 r1028M 83baa7f
Encoding settings                : cabac=1 / ref=2 / deblock=1:0:0 / analyse=0x1:0x111 / me=umh / subme=6 / psy_rd=1.0:0.0 / mixed_ref=0 / me_range=16 / chroma_me=1 / trellis=0 / 8x8dct=0 / cqm=0 / deadzone=21,11 / chroma_qp_offset=-2 / threads=3 / nr=0 / decimate=1 / mbaff=0 / bframes=2 / b_pyramid=0 / b_adapt=1 / b_bias=0 / direct=1 / wpredb=0 / keyint=300 / keyint_min=30 / scenecut=40(pre) / rc=2pass / bitrate=1500 / ratetol=1.0 / qcomp=0.60 / qpmin=10 / qpmax=51 / qpstep=4 / cplxblur=20.0 / qblur=0.5 / ip_ratio=1.40 / pb_ratio=1.30 / aq=1:1.00
Color primaries                  : BT.601-6 525, BT.1358 525, BT.1700 NTSC, SMPTE 170M
Transfer characteristics         : BT.709-5, BT.1361
Matrix coefficients              : BT.601-6 525, BT.1358 525, BT.1700 NTSC, SMPTE 170M

Audio
ID                               : 1
Format                           : MPEG Audio
Format version                   : Version 1
Format profile                   : Layer 3
Mode                             : Joint stereo
Codec ID                         : 55
Codec ID/Hint                    : MP3
Duration                         : 1h 51mn
Bit rate mode                    : Constant
Bit rate                         : 320 Kbps
Channel(s)                       : 2 channels
Sampling rate                    : 48.0 KHz
Stream size                      : 254 MiB (17%)
Alignment                        : Split accross interleaves
Interleave, duration             : 24 ms (0.72 video frame)
Interleave, preload duration     : 719 ms
Writing library                  : LAME

File Scan:
Malwarebytes' Anti-Malware 1.50.1.1100
www.malwarebytes.org

Database version: 5385

Windows 5.1.2600 Service Pack 3
Internet Explorer 8.0.6001.18702

12/23/2010 2:47:44 PM
mbam-log-2010-12-23 (14-47-44).txt

Scan type: Quick scan
Objects scanned: 5
Time elapsed: 8 second(s)

Memory Processes Infected: 0
Memory Modules Infected: 0
Registry Keys Infected: 0
Registry Values Infected: 0
Registry Data Items Infected: 0
Folders Infected: 0
Files Infected: 0

Memory Processes Infected:
(No malicious items detected)

Memory Modules Infected:
(No malicious items detected)

Registry Keys Infected:
(No malicious items detected)

Registry Values Infected:
(No malicious items detected)

Registry Data Items Infected:
(No malicious items detected)

Folders Infected:
(No malicious items detected)

Files Infected:
(No malicious items detected)

When using TPB please read these important notes:
  
01- Anti-malware apps may warn about keygens, patches, cracks, etc., because of 
    their capabilities, (generating codes, etc.). Sometimes they're added to 
    the virus/spyware database and will be detected as malware. If you don't trust
    the keygens, patches, cracks, etc., don't use them. 
    
02- Before running .exe-files, keygens, patches, cracks, etc., always check first 
    if they can be unpacked. Often some third party added a virus to the 
    original file, repacked it and uploaded it again.

03- Letting anti-malware apps send scan results to their companies can cause
    keygens, patches, cracks, etc., to be added to their virus-database.

04- Firewalls which are set to automatically determine connections will allow 
    apps & malware!. Avoid this by manually configuring your firewall.

05- Usually (new) torrents with many downloads and seeders in a brief period is
    suspicious! Torrents with the Skull & Crossbones icon are trusted.

06- Some people use multiple accounts and post fake comments 
    and/or files trying to spread confusion. They seldom seriously
    comment or have any torrents, or a just a few to look passable.

07- Clicking on unknown links can cause malware to be installed on your machine.
  
08- In general often there are more fake and negative comments than reliable and
    positive comments.

09- In some countries uploading/downloading copyright protected material is 
    forbidden, but showing some appreciation to reliable up-loaders is not.

10- Posting fake and negative comments or fake/infected uploads on TPB can result
    in getting banned from TPB!

Requests?  Find me on SuprBay. http://forum.suprbay.org/member.php?action=profile&uid=91870
 

For reporting bad or suspicious torrents:  
http://forum.suprbay.org/forumdisplay.php?fid=29

For more of my torrents: 
https://thepiratebay.org/user/big_dad_e/  (Secured)

All torrents scanned with:
Norton Anti-virus
Malwarebytes' Anti-malware
 
http://www.pirate-party.us/

ALWAYS SEED & THANKS SEEDERS!